
<svg width="32" height="32" viewBox="0 0 32 32" xmlns="http://www.w3.org/2000/svg">
  <defs>
    <linearGradient id="grad1" x1="0%" y1="0%" x2="100%" y2="100%">
      <stop offset="0%" style="stop-color:#FF6B6B;stop-opacity:1" />
      <stop offset="100%" style="stop-color:#FF8E8E;stop-opacity:1" />
    </linearGradient>
  </defs>
  
  <!-- Background circle -->
  <circle cx="16" cy="16" r="16" fill="url(#grad1)"/>
  
  <!-- Cake icon -->
  <g transform="translate(8, 8) scale(0.16)">
    <!-- Cake base -->
    <rect x="20" y="60" width="60" height="20" rx="5" fill="#8B4513"/>
    
    <!-- Cake layers -->
    <rect x="15" y="45" width="70" height="15" rx="3" fill="#DEB887"/>
    <rect x="10" y="30" width="80" height="15" rx="3" fill="#F5DEB3"/>
    <rect x="5" y="15" width="90" height="15" rx="3" fill="#FFF8DC"/>
    
    <!-- Candles -->
    <rect x="35" y="5" width="3" height="10" fill="#FFD700"/>
    <rect x="45" y="5" width="3" height="10" fill="#FFD700"/>
    <rect x="55" y="5" width="3" height="10" fill="#FFD700"/>
    <rect x="65" y="5" width="3" height="10" fill="#FFD700"/>
    
    <!-- Candle flames -->
    <circle cx="36.5" cy="3" r="2" fill="#FF4500"/>
    <circle cx="46.5" cy="3" r="2" fill="#FF4500"/>
    <circle cx="56.5" cy="3" r="2" fill="#FF4500"/>
    <circle cx="66.5" cy="3" r="2" fill="#FF4500"/>
    
    <!-- Sprinkles -->
    <circle cx="25" cy="25" r="1" fill="#FF69B4"/>
    <circle cx="75" cy="25" r="1" fill="#FF69B4"/>
    <circle cx="30" cy="35" r="1" fill="#87CEEB"/>
    <circle cx="70" cy="35" r="1" fill="#87CEEB"/>
    <circle cx="50" cy="40" r="1" fill="#98FB98"/>
  </g>
  
  <!-- Text -->
  <text x="16" y="22" text-anchor="middle" font-family="Arial, sans-serif" font-size="4" fill="white" font-weight="bold">DS</text>
</svg>